<svg xmlns="http://www.w3.org/2000/svg" viewBox="0 0 240 48" role="img" aria-label="Prime Smiles Dental Clinic">
  <!-- Prime Smiles Dental Clinic logo -->
  <defs>
    <linearGradient id="ps" x1="0" y1="0" x2="1" y2="1">
      <stop offset="0" stop-color="#10b981"/>
      <stop offset="1" stop-color="#059669"/>
    </linearGradient>
  </defs>
  <g transform="translate(4 6)">
    <path fill="url(#ps)" d="M18 0.5c-3 0-4.6 1.6-8 1.6S5 0.5 2.6 2.1C-0.2 4 -0.4 8.6 1 14.2c1 4 1.6 9.4 3.3 15.3.5 1.8 2.9 1.9 3.5.1.8-2.6 1.4-6.2 2.6-8.1.6-1 2.6-1 3.2 0 1.2 1.9 1.8 5.5 2.6 8.1.6 1.8 3 1.7 3.5-.1 1.7-5.9 2.3-11.3 3.3-15.3 1.4-5.6 1.2-10.2-1.6-12.1C21.7.6 20.4.5 18 .5Z"/>
  </g>
  <text x="42" y="31" font-family="Poppins, 'Segoe UI', sans-serif" font-size="20" font-weight="700" fill="#0f172a">Prime<tspan fill="#10b981">Smiles</tspan></text>
</svg>
